<?xml version="1.0"?>
<svg xmlns="http://www.w3.org/2000/svg" width="212" height="194" viewBox="0 0 212 194" fill="none">
<path d="M208.348 96.6254H159.769C155.121 96.6254 151.352 92.855 151.352 88.204L151.352 3.54589C151.352 1.58752 149.765 0 147.808 0H124.626C122.668 0 121.081 1.58752 121.081 3.54589V88.204C121.081 92.855 117.313 96.6254 112.664 96.6254H99.2286C94.5801 96.6254 90.8116 92.8555 90.8111 88.205V3.54589C90.8111 1.58752 89.2243 0 87.2668 0H64.0849C62.1275 0 60.5407 1.58752 60.5407 3.54589L60.5406 88.204C60.5406 92.855 56.7719 96.6254 52.123 96.6254H3.54425C1.58679 96.6254 0 98.213 0 100.171V189.705C0 191.663 1.58679 193.251 3.54425 193.251H56.9964C58.9539 193.251 60.5407 191.663 60.5407 189.705V105.046C60.5412 100.395 64.3097 96.6254 68.9582 96.6254H82.3935C87.0424 96.6254 90.8111 100.396 90.8111 105.047V189.705C90.8111 191.663 92.3979 193.251 94.3553 193.251H117.537C119.495 193.251 121.081 191.663 121.081 189.705V105.047C121.081 100.396 124.85 96.6254 129.499 96.6254H142.934C147.583 96.6254 151.351 100.395 151.352 105.046V189.705C151.352 191.663 152.939 193.251 154.896 193.251H208.348C210.306 193.251 211.893 191.663 211.893 189.705V100.171C211.893 98.213 210.306 96.6254 208.348 96.6254Z" fill="#1C1C1C"></path>
</svg>